<svg data-v-d3f97b9e="" xmlns="http://www.w3.org/2000/svg" viewBox="0 0 60.08790193253785 60"><!----><!----><!----><!----><g data-v-d3f97b9e="" id="9c5d94ea-e11d-4f0c-a1bc-bb14c02439d2" transform="matrix(0.6679894539425403,0,0,0.6679894539425403,-3.355521979211048,-3.3922030632255655)" stroke="none" fill="white"><path d="M93.1 6.9c-5.2-5.2-18.5 1.3-32.8 12.3-3.2-1.1-6.7-1.7-10.3-1.7-17.9 0-32.5 14.6-32.5 32.5 0 3.6.6 7.1 1.7 10.3C8.1 74.7 1.6 87.9 6.9 93.1c1.3 1.3 3 1.8 5.1 1.8 6.6 0 16.8-5.8 27.7-14.2 3.2 1.1 6.7 1.7 10.3 1.7 17.9 0 32.5-14.6 32.5-32.5 0-3.6-.6-7.1-1.7-10.3C91.9 25.3 98.4 12.1 93.1 6.9zM77.5 50c0 15.2-12.3 27.5-27.5 27.5-1.9 0-3.7-.2-5.5-.5 5.7-4.7 11.5-10 17-15.5 5.4-5.4 10.7-11.2 15.5-17 .3 1.8.5 3.6.5 5.5zM58 58c-7 6.9-13.4 12.6-19.2 17.1-9.6-4.3-16.3-13.9-16.3-25.1 0-15.2 12.3-27.5 27.5-27.5 11.2 0 20.8 6.7 25.1 16.3C70.6 44.6 64.9 51 58 58zM10.4 89.6c-1.8-1.8 1.4-10.7 11.1-24 3 5.4 7.5 9.9 12.9 12.9-13.2 9.7-22.2 12.9-24 11.1zm68.1-55.2c-3-5.4-7.5-9.9-12.9-12.9 13.2-9.7 22.2-12.9 24-11.1 1.8 1.8-1.4 10.7-11.1 24z"></path><path d="M45 38.8c0-3.4-2.8-6.3-6.3-6.3s-6.3 2.8-6.3 6.3 2.8 6.3 6.3 6.3 6.3-2.9 6.3-6.3zm-10 0c0-2.1 1.7-3.8 3.8-3.8s3.8 1.7 3.8 3.8-1.7 3.8-3.8 3.8-3.8-1.8-3.8-3.8z"></path></g><!----></svg>