<svg data-v-29081953="" xmlns="http://www.w3.org/2000/svg" viewBox="0 0 300 300"><!----><defs data-v-29081953=""><!----></defs><rect data-v-29081953="" fill="transparent" x="0" y="0" width="300px" height="300px" class="logo-background-square"></rect><!----><defs data-v-29081953=""><linearGradient data-v-29081953="" gradientTransform="rotate(25)" id="2723be33-1900-4c1a-b753-682a7811cbae" x1="0%" y1="0%" x2="100%" y2="0%"><stop data-v-29081953="" offset="0%" stop-color="#5106FF" stop-opacity="1"></stop><stop data-v-29081953="" offset="100%" stop-color="#61CBF2" stop-opacity="1"></stop></linearGradient></defs><g data-v-29081953="" id="c5053808-9e6e-4de4-b3b4-31420b000a5c" fill="url(#2723be33-1900-4c1a-b753-682a7811cbae)" stroke="none" transform="matrix(2.445711618161537,0,0,2.445711618161537,27.714421424335512,27.741038914137366)"><path d="M93.1 6.9c-5.2-5.2-18.5 1.3-32.8 12.3-3.2-1.1-6.7-1.7-10.3-1.7-17.9 0-32.5 14.6-32.5 32.5 0 3.6.6 7.1 1.7 10.3C8.1 74.7 1.6 87.9 6.9 93.1c1.3 1.3 3 1.8 5.1 1.8 6.6 0 16.8-5.8 27.7-14.2 3.2 1.1 6.7 1.7 10.3 1.7 17.9 0 32.5-14.6 32.5-32.5 0-3.6-.6-7.1-1.7-10.3C91.9 25.3 98.4 12.1 93.1 6.9zM77.5 50c0 15.2-12.3 27.5-27.5 27.5-1.9 0-3.7-.2-5.5-.5 5.7-4.7 11.5-10 17-15.5 5.4-5.4 10.7-11.2 15.5-17 .3 1.8.5 3.6.5 5.5zM58 58c-7 6.9-13.4 12.6-19.2 17.1-9.6-4.3-16.3-13.9-16.3-25.1 0-15.2 12.3-27.5 27.5-27.5 11.2 0 20.8 6.7 25.1 16.3C70.6 44.6 64.9 51 58 58zM10.4 89.6c-1.8-1.8 1.4-10.7 11.1-24 3 5.4 7.5 9.9 12.9 12.9-13.2 9.7-22.2 12.9-24 11.1zm68.1-55.2c-3-5.4-7.5-9.9-12.9-12.9 13.2-9.7 22.2-12.9 24-11.1 1.8 1.8-1.4 10.7-11.1 24z"></path><path d="M45 38.8c0-3.4-2.8-6.3-6.3-6.3s-6.3 2.8-6.3 6.3 2.8 6.3 6.3 6.3 6.3-2.9 6.3-6.3zm-10 0c0-2.1 1.7-3.8 3.8-3.8s3.8 1.7 3.8 3.8-1.7 3.8-3.8 3.8-3.8-1.8-3.8-3.8z"></path></g><!----></svg>