<svg data-v-29081953="" xmlns="http://www.w3.org/2000/svg" viewBox="0 0 300 300"><!----><defs data-v-29081953=""><!----></defs><rect data-v-29081953="" fill="transparent" x="0" y="0" width="300px" height="300px" class="logo-background-square"></rect><defs data-v-29081953=""><!----></defs><g data-v-29081953="" id="a8ce40b4-3447-4f0b-82a4-757897060514" fill="#000000" transform="matrix(1.981982412796653,0,0,1.981982412796653,100.86663687757768,118.63423011929848)"><path d="M7.91 14.35L8.20 14.35L8.20 9.70L5.43 9.70L5.43 9.98L7.90 9.98L7.90 11.47C7.90 13.31 6.44 14.24 4.76 14.24C2.62 14.24 1.32 12.71 1.32 9.76L1.32 9.17C1.32 6.22 2.62 4.69 4.76 4.69C6.12 4.69 7.20 5.38 7.70 6.54L7.97 6.41C7.43 5.21 6.27 4.41 4.76 4.41C2.34 4.41 0.98 6.10 0.98 9.46C0.98 12.82 2.34 14.52 4.76 14.52C6.31 14.52 7.34 13.87 7.87 12.75L7.91 12.75ZM11.09 14.35L11.09 9.46C11.09 8.16 12.15 7.53 13.30 7.53L13.92 7.53L13.92 7.27L13.34 7.27C12.04 7.27 11.45 7.83 11.13 8.48L11.09 8.48L11.09 7.27L10.79 7.27L10.79 14.35ZM17.88 14.52C19.73 14.52 20.82 13.26 20.82 10.81C20.82 8.36 19.73 7.10 17.88 7.10C16.03 7.10 14.94 8.36 14.94 10.81C14.94 13.26 16.03 14.52 17.88 14.52ZM17.88 14.25C16.20 14.25 15.26 13.05 15.26 11.14L15.26 10.47C15.26 8.57 16.20 7.36 17.88 7.36C19.56 7.36 20.50 8.57 20.50 10.47L20.50 11.14C20.50 13.05 19.56 14.25 17.88 14.25ZM25.44 14.52C27.29 14.52 28.38 13.26 28.38 10.81C28.38 8.36 27.29 7.10 25.44 7.10C23.59 7.10 22.50 8.36 22.50 10.81C22.50 13.26 23.59 14.52 25.44 14.52ZM25.44 14.25C23.76 14.25 22.82 13.05 22.82 11.14L22.82 10.47C22.82 8.57 23.76 7.36 25.44 7.36C27.12 7.36 28.06 8.57 28.06 10.47L28.06 11.14C28.06 13.05 27.12 14.25 25.44 14.25ZM32.13 14.35L32.49 14.35L35.13 7.27L34.83 7.27L32.34 14.01L32.30 14.01L29.81 7.27L29.50 7.27ZM38.67 14.01L38.63 14.01L36.13 7.27L35.83 7.27L38.50 14.45L37.58 16.88L36.27 16.88L36.27 17.15L37.45 17.15C37.66 17.15 37.81 17.07 37.88 16.88L41.45 7.27L41.16 7.27ZM45.67 14.52C47.49 14.52 48.65 13.62 48.65 11.86C48.65 10.71 48.17 9.66 46.17 9.28L45.19 9.10C43.97 8.88 42.92 8.40 42.92 6.87C42.92 5.40 43.92 4.69 45.57 4.69C46.83 4.69 47.67 5.11 48.23 5.92L48.48 5.74C47.95 4.96 47.04 4.41 45.60 4.41C43.79 4.41 42.62 5.21 42.62 6.87C42.62 8.02 43.15 9.03 45.11 9.39L46.09 9.58C47.26 9.80 48.34 10.25 48.34 11.89C48.34 13.43 47.36 14.24 45.67 14.24C44.17 14.24 43.33 13.64 42.64 12.74L42.39 12.92C43.09 13.85 44.04 14.52 45.67 14.52ZM53.27 14.52C54.63 14.52 55.55 13.78 55.97 12.61L55.72 12.52C55.29 13.66 54.46 14.25 53.27 14.25C51.59 14.25 50.62 13.05 50.62 11.14L50.62 10.77L56.08 10.77L56.08 10.63C56.08 8.46 54.92 7.10 53.21 7.10C51.39 7.10 50.30 8.39 50.30 10.81C50.30 13.26 51.42 14.52 53.27 14.52ZM53.21 7.36C54.74 7.36 55.76 8.58 55.76 10.44L55.76 10.50L50.62 10.50L50.62 10.47C50.62 8.57 51.56 7.36 53.21 7.36ZM58.69 14.35L58.69 9.46C58.69 8.16 59.75 7.53 60.90 7.53L61.52 7.53L61.52 7.27L60.94 7.27C59.64 7.27 59.05 7.83 58.73 8.48L58.69 8.48L58.69 7.27L58.39 7.27L58.39 14.35ZM64.96 14.35L65.32 14.35L67.96 7.27L67.66 7.27L65.17 14.01L65.13 14.01L62.64 7.27L62.33 7.27ZM72.04 14.52C73.40 14.52 74.33 13.78 74.75 12.61L74.49 12.52C74.06 13.66 73.23 14.25 72.04 14.25C70.36 14.25 69.40 13.05 69.40 11.14L69.40 10.77L74.86 10.77L74.86 10.63C74.86 8.46 73.70 7.10 71.99 7.10C70.17 7.10 69.08 8.39 69.08 10.81C69.08 13.26 70.20 14.52 72.04 14.52ZM71.99 7.36C73.51 7.36 74.54 8.58 74.54 10.44L74.54 10.50L69.40 10.50L69.40 10.47C69.40 8.57 70.34 7.36 71.99 7.36ZM77.46 14.35L77.46 9.46C77.46 8.16 78.53 7.53 79.67 7.53L80.29 7.53L80.29 7.27L79.72 7.27C78.41 7.27 77.83 7.83 77.50 8.48L77.46 8.48L77.46 7.27L77.17 7.27L77.17 14.35Z"></path></g><defs data-v-29081953=""><linearGradient data-v-29081953="" gradientTransform="rotate(25)" id="06fd8601-b018-4fac-9988-5deb97066ebc" x1="0%" y1="0%" x2="100%" y2="0%"><stop data-v-29081953="" offset="0%" stop-color="#5106FF" stop-opacity="1"></stop><stop data-v-29081953="" offset="100%" stop-color="#61CBF2" stop-opacity="1"></stop></linearGradient></defs><g data-v-29081953="" id="039dde55-b6ad-4b0e-8963-0d060a083e5b" stroke="none" fill="url(#06fd8601-b018-4fac-9988-5deb97066ebc)" transform="matrix(0.5537200013270746,0,0,0.5537200013270746,37.218490301675665,122.32002677993604)"><path d="M93.1 6.9c-5.2-5.2-18.5 1.3-32.8 12.3-3.2-1.1-6.7-1.7-10.3-1.7-17.9 0-32.5 14.6-32.5 32.5 0 3.6.6 7.1 1.7 10.3C8.1 74.7 1.6 87.9 6.9 93.1c1.3 1.3 3 1.8 5.1 1.8 6.6 0 16.8-5.8 27.7-14.2 3.2 1.1 6.7 1.7 10.3 1.7 17.9 0 32.5-14.6 32.5-32.5 0-3.6-.6-7.1-1.7-10.3C91.9 25.3 98.4 12.1 93.1 6.9zM77.5 50c0 15.2-12.3 27.5-27.5 27.5-1.9 0-3.7-.2-5.5-.5 5.7-4.7 11.5-10 17-15.5 5.4-5.4 10.7-11.2 15.5-17 .3 1.8.5 3.6.5 5.5zM58 58c-7 6.9-13.4 12.6-19.2 17.1-9.6-4.3-16.3-13.9-16.3-25.1 0-15.2 12.3-27.5 27.5-27.5 11.2 0 20.8 6.7 25.1 16.3C70.6 44.6 64.9 51 58 58zM10.4 89.6c-1.8-1.8 1.4-10.7 11.1-24 3 5.4 7.5 9.9 12.9 12.9-13.2 9.7-22.2 12.9-24 11.1zm68.1-55.2c-3-5.4-7.5-9.9-12.9-12.9 13.2-9.7 22.2-12.9 24-11.1 1.8 1.8-1.4 10.7-11.1 24z"></path><path d="M45 38.8c0-3.4-2.8-6.3-6.3-6.3s-6.3 2.8-6.3 6.3 2.8 6.3 6.3 6.3 6.3-2.9 6.3-6.3zm-10 0c0-2.1 1.7-3.8 3.8-3.8s3.8 1.7 3.8 3.8-1.7 3.8-3.8 3.8-3.8-1.8-3.8-3.8z"></path></g><defs data-v-29081953=""><!----></defs><g data-v-29081953="" id="4d272793-f805-4376-b15e-948e1e84c287" fill="#000000" transform="matrix(0.46242170327704396,0,0,0.46242170327704396,102.56852040303764,161.28420475909138)"><path d="M0.52 12.39C0.52 12.63 0.55 12.68 0.74 12.68C1.06 12.68 2.03 12.64 2.45 12.64C2.87 12.64 7.38 12.68 7.70 12.68C7.83 12.68 7.98 12.66 7.98 12.49C7.98 12.07 8.02 11.23 8.02 10.53C8.02 10.39 7.87 10.39 7.74 10.39C7.63 10.39 7.50 10.39 7.50 10.51C7.49 11.06 7.49 11.41 7.46 11.76C7.43 12.01 7.43 12.04 7.34 12.04C7.18 12.04 4.55 12.08 3.05 12.08C2.98 12.08 2.94 10.11 2.90 8.26C2.90 8.06 2.94 8.09 3.08 8.09L5.36 8.09C6.06 8.09 6.09 8.20 6.09 8.30L6.09 9.00C6.09 9.14 6.27 9.14 6.38 9.14C6.48 9.14 6.61 9.13 6.61 9.02C6.61 8.83 6.58 8.33 6.58 7.83C6.58 7.32 6.61 6.83 6.61 6.71C6.61 6.59 6.47 6.58 6.37 6.58C6.26 6.58 6.09 6.59 6.09 6.72L6.09 7.45C6.09 7.62 5.64 7.63 5.36 7.63L3.02 7.63C2.91 7.63 2.90 7.63 2.90 7.45C2.88 6.75 2.87 6.06 2.87 5.46C2.87 5.12 2.87 3.71 2.95 3.71C4.19 3.71 6.69 3.75 6.69 3.81C6.69 3.99 6.65 4.83 6.65 4.89C6.65 5.04 6.72 5.10 6.90 5.10C7.10 5.10 7.17 5.08 7.17 4.94C7.17 3.85 7.22 3.36 7.22 3.09C7.22 2.91 7.14 2.90 6.94 2.90C6.75 2.90 6.75 2.95 6.72 3.11C6.71 3.25 6.78 3.25 5.87 3.25C5.25 3.25 3.11 3.29 2.34 3.29C1.85 3.29 0.91 3.25 0.81 3.25C0.69 3.25 0.63 3.30 0.63 3.49C0.63 3.72 0.70 3.74 0.87 3.74L1.53 3.74C1.58 3.74 1.65 4.79 1.65 5.71C1.65 5.80 1.71 8.27 1.71 9.83L1.71 11.17C1.71 11.84 1.68 12.18 1.65 12.18L0.80 12.18C0.57 12.18 0.52 12.21 0.52 12.39ZM15.57 12.43C15.57 12.66 15.65 12.68 15.83 12.68C16.06 12.68 16.58 12.64 17.00 12.64C17.42 12.64 17.84 12.68 18.16 12.68C18.35 12.68 18.40 12.63 18.40 12.39C18.40 12.19 18.33 12.18 18.10 12.18L17.33 12.18C17.16 12.18 17.23 12.11 17.36 11.90C17.89 11.03 19.24 9.09 19.64 8.51C19.68 8.44 19.71 8.46 19.75 8.53C20.29 9.42 21.42 11.30 21.78 12.03C21.85 12.14 21.84 12.18 21.71 12.18L21.01 12.18C20.79 12.18 20.72 12.19 20.72 12.39C20.72 12.63 20.76 12.68 20.96 12.68C21.28 12.68 22.16 12.64 22.58 12.64C23.00 12.64 23.81 12.68 24.04 12.68C24.26 12.68 24.30 12.67 24.30 12.43C24.30 12.19 24.28 12.18 24.01 12.18L23.53 12.18C23.45 12.18 21 8.32 20.57 7.63C20.54 7.59 20.52 7.53 20.57 7.48C20.85 7.06 21.85 5.78 22.68 4.59C22.99 4.14 23.30 3.77 23.34 3.77L23.66 3.77C23.83 3.77 23.93 3.75 23.93 3.51C23.93 3.29 23.84 3.26 23.66 3.26C23.44 3.26 23.02 3.30 22.60 3.30C22.09 3.30 21.73 3.26 21.50 3.26C21.31 3.26 21.27 3.32 21.27 3.56C21.27 3.75 21.34 3.77 21.56 3.77L22.34 3.77L22.34 3.78C22.34 3.99 21.92 4.68 21.46 5.36C21.34 5.56 20.58 6.72 20.31 7.10C20.29 7.14 20.27 7.15 20.26 7.15C20.23 7.15 20.17 7.04 20.13 6.99C19.67 6.17 18.79 4.61 18.51 3.92C18.47 3.81 18.41 3.77 18.58 3.77L19.15 3.77C19.38 3.77 19.45 3.75 19.45 3.56C19.45 3.32 19.43 3.26 19.24 3.26C18.91 3.26 18.27 3.30 17.85 3.30C17.43 3.30 16.41 3.26 16.18 3.26C16.00 3.26 15.92 3.28 15.92 3.51C15.92 3.75 16.03 3.77 16.20 3.77L16.74 3.77C16.83 3.77 19.15 7.56 19.36 7.91C19.43 8.01 19.45 8.05 19.38 8.15C18.70 9.02 17.98 9.88 17.36 10.79C16.86 11.52 16.42 12.18 16.35 12.18L15.83 12.18C15.67 12.18 15.57 12.19 15.57 12.43ZM31.92 12.39C31.92 12.63 31.95 12.68 32.14 12.68C32.47 12.68 33.43 12.64 33.85 12.64C34.27 12.64 38.78 12.68 39.10 12.68C39.23 12.68 39.38 12.66 39.38 12.49C39.38 12.07 39.42 11.23 39.42 10.53C39.42 10.39 39.27 10.39 39.14 10.39C39.03 10.39 38.91 10.39 38.91 10.51C38.89 11.06 38.89 11.41 38.86 11.76C38.84 12.01 38.84 12.04 38.74 12.04C38.58 12.04 35.95 12.08 34.45 12.08C34.38 12.08 34.34 10.11 34.30 8.26C34.30 8.06 34.34 8.09 34.48 8.09L36.76 8.09C37.46 8.09 37.49 8.20 37.49 8.30L37.49 9.00C37.49 9.14 37.67 9.14 37.79 9.14C37.88 9.14 38.01 9.13 38.01 9.02C38.01 8.83 37.98 8.33 37.98 7.83C37.98 7.32 38.01 6.83 38.01 6.71C38.01 6.59 37.87 6.58 37.77 6.58C37.66 6.58 37.49 6.59 37.49 6.72L37.49 7.45C37.49 7.62 37.04 7.63 36.76 7.63L34.43 7.63C34.31 7.63 34.30 7.63 34.30 7.45C34.29 6.75 34.27 6.06 34.27 5.46C34.27 5.12 34.27 3.71 34.36 3.71C35.59 3.71 38.09 3.75 38.09 3.81C38.09 3.99 38.05 4.83 38.05 4.89C38.05 5.04 38.12 5.10 38.30 5.10C38.50 5.10 38.57 5.08 38.57 4.94C38.57 3.85 38.63 3.36 38.63 3.09C38.63 2.91 38.54 2.90 38.35 2.90C38.15 2.90 38.15 2.95 38.12 3.11C38.11 3.25 38.18 3.25 37.27 3.25C36.65 3.25 34.51 3.29 33.74 3.29C33.25 3.29 32.31 3.25 32.21 3.25C32.09 3.25 32.03 3.30 32.03 3.49C32.03 3.72 32.10 3.74 32.27 3.74L32.93 3.74C32.98 3.74 33.05 4.79 33.05 5.71C33.05 5.80 33.11 8.27 33.11 9.83L33.11 11.17C33.11 11.84 33.08 12.18 33.05 12.18L32.20 12.18C31.98 12.18 31.92 12.21 31.92 12.39ZM47.46 7.91C47.46 11.31 49.83 12.87 52.42 12.87C54.19 12.87 55.97 11.90 56.01 11.59C56.18 10.29 56.24 9.70 56.24 9.66C56.24 9.56 56.20 9.52 56.03 9.51C55.97 9.51 55.92 9.49 55.87 9.49C55.76 9.49 55.71 9.53 55.68 9.70L55.50 11.33C55.48 11.45 54.38 12.24 52.81 12.24C50.68 12.24 48.97 10.29 48.97 7.94C48.97 5.42 50.40 3.54 52.40 3.54C54.25 3.54 55.59 5.01 55.59 5.17C55.59 5.29 55.54 6.40 55.54 6.45C55.54 6.59 55.58 6.64 55.85 6.64C56.04 6.64 56.11 6.62 56.11 6.44C56.11 5.73 56.17 3.92 56.17 3.67C56.17 3.47 56.06 3.44 55.85 3.44C55.62 3.44 55.59 3.50 55.59 3.67L55.59 4.05C55.59 4.16 55.55 4.16 55.43 4.06C55.15 3.86 54.17 3.04 52.50 3.04C49.66 3.04 47.46 4.96 47.46 7.91ZM64.62 3.51C64.62 3.75 64.71 3.77 64.88 3.77L65.41 3.77C65.46 3.77 65.46 4.12 65.46 4.55C65.46 5.66 65.45 8.96 65.45 9.42C65.45 11.13 65.70 12.80 68.56 12.80C69.64 12.80 70.80 12.38 71.46 12.00C71.71 11.86 72.00 11.72 72.09 11.72C72.35 11.72 72.62 12.74 72.95 12.74C73.28 12.74 73.29 12.35 73.29 12.25C73.29 11.96 73.35 10.08 73.39 8.16C73.44 6.12 73.43 3.77 73.54 3.77L73.86 3.77C74.09 3.77 74.16 3.75 74.16 3.56C74.16 3.32 74.12 3.26 73.92 3.26C73.78 3.26 73.25 3.30 72.83 3.30C72.41 3.30 71.61 3.26 71.39 3.26C71.20 3.26 71.11 3.28 71.11 3.51C71.11 3.75 71.22 3.77 71.39 3.77L72.09 3.77C72.16 3.77 72.17 4.30 72.17 4.87L72.17 9.14C72.17 11.19 72.17 11.12 71.83 11.34C71.44 11.61 70.63 12.08 69.45 12.08C67.48 12.08 66.68 11.17 66.68 9.41C66.68 8.82 66.75 3.77 66.86 3.77L67.77 3.77C68.00 3.77 68.04 3.75 68.04 3.56C68.04 3.32 68.03 3.26 67.83 3.26C67.51 3.26 66.63 3.30 66.21 3.30C65.79 3.30 65.10 3.26 64.88 3.26C64.69 3.26 64.62 3.28 64.62 3.51ZM81.93 5.01C81.93 5.17 82.11 5.17 82.24 5.17C82.39 5.17 82.43 5.15 82.45 4.97L82.56 3.89C82.57 3.81 83.12 3.75 83.87 3.75L85.86 3.75C85.92 3.75 85.95 4.35 85.95 4.97C85.95 6.43 85.89 12.18 85.76 12.18L84.90 12.18C84.67 12.18 84.63 12.19 84.63 12.39C84.63 12.63 84.64 12.68 84.84 12.68C85.16 12.68 86.14 12.64 86.56 12.64C86.98 12.64 87.92 12.68 88.24 12.68C88.41 12.68 88.44 12.61 88.44 12.40C88.44 12.24 88.41 12.18 88.24 12.18L87.25 12.18C87.22 12.18 87.22 11.76 87.22 11.31C87.22 9.56 87.30 5.96 87.30 5.92C87.32 5.18 87.32 3.75 87.42 3.75L89.03 3.75C89.74 3.75 90.57 3.78 90.57 3.85C90.57 3.99 90.52 4.90 90.52 4.97C90.52 5.12 90.59 5.17 90.78 5.17C90.97 5.17 91.04 5.17 91.04 5.03C91.04 3.93 91.10 3.40 91.10 3.14C91.10 2.94 91.01 2.94 90.82 2.94C90.66 2.94 90.61 2.98 90.59 3.16C90.59 3.23 89.95 3.28 89.11 3.28L84.11 3.28C83.45 3.28 82.64 3.28 82.64 3.21L82.64 3.07C82.64 2.94 82.52 2.94 82.42 2.94C82.19 2.94 82.17 3.00 82.15 3.19C82.10 3.89 81.93 4.97 81.93 5.01ZM98.85 12.39C98.85 12.63 98.88 12.68 99.08 12.68C99.40 12.68 100.37 12.64 100.79 12.64C101.21 12.64 105.71 12.68 106.04 12.68C106.16 12.68 106.32 12.66 106.32 12.49C106.32 12.07 106.36 11.23 106.36 10.53C106.36 10.39 106.20 10.39 106.08 10.39C105.97 10.39 105.84 10.39 105.84 10.51C105.83 11.06 105.83 11.41 105.80 11.76C105.77 12.01 105.77 12.04 105.67 12.04C105.52 12.04 102.89 12.08 101.39 12.08C101.32 12.08 101.28 10.11 101.23 8.26C101.23 8.06 101.28 8.09 101.42 8.09L103.70 8.09C104.40 8.09 104.43 8.20 104.43 8.30L104.43 9.00C104.43 9.14 104.61 9.14 104.72 9.14C104.82 9.14 104.94 9.13 104.94 9.02C104.94 8.83 104.92 8.33 104.92 7.83C104.92 7.32 104.94 6.83 104.94 6.71C104.94 6.59 104.80 6.58 104.71 6.58C104.59 6.58 104.43 6.59 104.43 6.72L104.43 7.45C104.43 7.62 103.98 7.63 103.70 7.63L101.36 7.63C101.25 7.63 101.23 7.63 101.23 7.45C101.22 6.75 101.21 6.06 101.21 5.46C101.21 5.12 101.21 3.71 101.29 3.71C102.52 3.71 105.03 3.75 105.03 3.81C105.03 3.99 104.99 4.83 104.99 4.89C104.99 5.04 105.06 5.10 105.24 5.10C105.43 5.10 105.50 5.08 105.50 4.94C105.50 3.85 105.56 3.36 105.56 3.09C105.56 2.91 105.48 2.90 105.28 2.90C105.08 2.90 105.08 2.95 105.06 3.11C105.04 3.25 105.11 3.25 104.20 3.25C103.59 3.25 101.44 3.29 100.67 3.29C100.18 3.29 99.25 3.25 99.15 3.25C99.02 3.25 98.97 3.30 98.97 3.49C98.97 3.72 99.04 3.74 99.20 3.74L99.86 3.74C99.92 3.74 99.99 4.79 99.99 5.71C99.99 5.80 100.04 8.27 100.04 9.83L100.04 11.17C100.04 11.84 100.02 12.18 99.99 12.18L99.13 12.18C98.91 12.18 98.85 12.21 98.85 12.39ZM124.19 7.91C124.19 11.31 126.56 12.87 129.15 12.87C130.93 12.87 132.71 11.90 132.75 11.59C132.92 10.29 132.97 9.70 132.97 9.66C132.97 9.56 132.93 9.52 132.76 9.51C132.71 9.51 132.65 9.49 132.61 9.49C132.50 9.49 132.44 9.53 132.41 9.70L132.23 11.33C132.22 11.45 131.11 12.24 129.54 12.24C127.41 12.24 125.71 10.29 125.71 7.94C125.71 5.42 127.13 3.54 129.14 3.54C130.98 3.54 132.33 5.01 132.33 5.17C132.33 5.29 132.27 6.40 132.27 6.45C132.27 6.59 132.31 6.64 132.58 6.64C132.78 6.64 132.85 6.62 132.85 6.44C132.85 5.73 132.90 3.92 132.90 3.67C132.90 3.47 132.79 3.44 132.58 3.44C132.36 3.44 132.33 3.50 132.33 3.67L132.33 4.05C132.33 4.16 132.29 4.16 132.16 4.06C131.88 3.86 130.90 3.04 129.23 3.04C126.39 3.04 124.19 4.96 124.19 7.91ZM141.43 8.15C141.43 11.17 143.77 12.80 146.02 12.80C148.81 12.80 150.78 10.89 150.78 8.06C150.78 5.33 149.03 3.11 146.23 3.11C143.63 3.11 141.43 5.10 141.43 8.15ZM142.83 7.77C142.83 5.64 144.12 3.58 146.09 3.58C148.33 3.58 149.41 5.81 149.41 7.94C149.41 10.08 148.30 12.32 146.03 12.32C144.05 12.32 142.83 10.28 142.83 7.77ZM158.82 12.46C158.82 12.63 158.83 12.70 159.01 12.70C159.17 12.70 160.40 12.64 160.79 12.64C161.64 12.64 162.53 12.70 163.38 12.70C166.00 12.70 168.39 11.07 168.39 7.91C168.39 4.89 166.05 3.07 163.02 3.07C162.46 3.07 161.20 3.23 160.16 3.23C159.68 3.23 159.22 3.22 159.17 3.22C158.98 3.22 158.97 3.32 158.97 3.49C158.97 3.68 159.04 3.70 159.17 3.70L160.13 3.67C160.16 3.67 160.16 4.20 160.16 4.72C160.16 5.91 160.08 12.21 159.99 12.21L159.10 12.21C158.91 12.21 158.82 12.22 158.82 12.46ZM161.39 11.40C161.39 9.46 161.39 7.52 161.41 5.60C161.41 5.03 161.45 3.61 161.49 3.60C161.78 3.53 162.37 3.51 162.72 3.51C165.28 3.51 166.89 5.75 166.89 7.73C166.89 8.95 166.85 12.25 162.18 12.25C161.91 12.25 161.50 12.25 161.41 12.21C161.39 12.19 161.39 11.79 161.39 11.40ZM176.50 12.39C176.50 12.63 176.53 12.68 176.72 12.68C177.04 12.68 178.01 12.64 178.43 12.64C178.85 12.64 183.36 12.68 183.68 12.68C183.81 12.68 183.96 12.66 183.96 12.49C183.96 12.07 184.00 11.23 184.00 10.53C184.00 10.39 183.85 10.39 183.72 10.39C183.61 10.39 183.48 10.39 183.48 10.51C183.47 11.06 183.47 11.41 183.44 11.76C183.41 12.01 183.41 12.04 183.32 12.04C183.16 12.04 180.53 12.08 179.03 12.08C178.96 12.08 178.92 10.11 178.88 8.26C178.88 8.06 178.92 8.09 179.06 8.09L181.34 8.09C182.04 8.09 182.07 8.20 182.07 8.30L182.07 9.00C182.07 9.14 182.25 9.14 182.36 9.14C182.46 9.14 182.59 9.13 182.59 9.02C182.59 8.83 182.56 8.33 182.56 7.83C182.56 7.32 182.59 6.83 182.59 6.71C182.59 6.59 182.45 6.58 182.35 6.58C182.24 6.58 182.07 6.59 182.07 6.72L182.07 7.45C182.07 7.62 181.62 7.63 181.34 7.63L179.00 7.63C178.89 7.63 178.88 7.63 178.88 7.45C178.86 6.75 178.85 6.06 178.85 5.46C178.85 5.12 178.85 3.71 178.93 3.71C180.17 3.71 182.67 3.75 182.67 3.81C182.67 3.99 182.63 4.83 182.63 4.89C182.63 5.04 182.70 5.10 182.88 5.10C183.08 5.10 183.15 5.08 183.15 4.94C183.15 3.85 183.20 3.36 183.20 3.09C183.20 2.91 183.12 2.90 182.92 2.90C182.73 2.90 182.73 2.95 182.70 3.11C182.69 3.25 182.76 3.25 181.85 3.25C181.23 3.25 179.09 3.29 178.32 3.29C177.83 3.29 176.89 3.25 176.79 3.25C176.67 3.25 176.61 3.30 176.61 3.49C176.61 3.72 176.68 3.74 176.85 3.74L177.51 3.74C177.56 3.74 177.63 4.79 177.63 5.71C177.63 5.80 177.69 8.27 177.69 9.83L177.69 11.17C177.69 11.84 177.66 12.18 177.63 12.18L176.78 12.18C176.55 12.18 176.50 12.21 176.50 12.39ZM201.63 12.39C201.63 12.63 201.63 12.68 201.82 12.68C201.99 12.68 202.31 12.64 202.89 12.64C203.50 12.64 204.05 12.68 204.20 12.68C204.37 12.68 204.37 12.61 204.37 12.40C204.37 12.24 204.37 12.18 204.20 12.18L203.13 12.18C203.13 12.18 203.11 12.18 203.11 12.17C203.13 11.87 203.90 9.90 204.25 9.02C204.32 8.83 204.33 8.79 204.54 8.79L207.37 8.79C207.51 8.79 207.51 8.81 207.58 9.03C207.84 9.77 208.56 11.89 208.56 12.17C208.56 12.18 208.54 12.18 208.54 12.18L207.77 12.18C207.55 12.18 207.54 12.19 207.54 12.39C207.54 12.63 207.55 12.68 207.72 12.68C208.04 12.68 208.91 12.64 209.33 12.64C209.75 12.64 210.42 12.68 210.63 12.68C210.77 12.68 210.78 12.61 210.78 12.40C210.78 12.24 210.77 12.18 210.63 12.18L210.14 12.18C210.04 12.18 209.02 9.34 208.46 7.78L206.78 3.07C206.77 3.00 206.70 2.94 206.61 2.94C206.49 2.94 206.39 3.16 206.30 3.35C206.15 3.71 205.91 3.84 205.80 4.13L204.32 7.57C204.13 8.01 202.43 12.18 202.30 12.18L201.88 12.18C201.66 12.18 201.63 12.19 201.63 12.39ZM204.53 8.33C204.53 8.30 204.55 8.23 204.60 8.13L205.97 4.77C206.01 4.66 206.04 4.61 206.07 4.61C206.08 4.61 206.09 4.63 206.14 4.77L207.30 8.18C207.33 8.25 207.34 8.29 207.34 8.32C207.34 8.36 207.31 8.37 207.21 8.37L204.71 8.37C204.53 8.37 204.53 8.34 204.53 8.33ZM218.54 12.39C218.54 12.63 218.55 12.68 218.75 12.68C218.93 12.68 219.31 12.64 219.93 12.64C220.56 12.64 221.12 12.68 221.44 12.68C221.61 12.68 221.61 12.61 221.61 12.40C221.61 12.24 221.61 12.18 221.44 12.18L220.23 12.18C220.19 12.18 220.18 11.54 220.18 10.79C220.18 9.46 220.19 7.48 220.19 5.99C220.19 5.25 220.19 4.84 220.21 4.28C220.21 4.02 220.28 4.14 220.40 4.28L227.29 12.66C227.37 12.75 227.46 12.89 227.57 12.89C227.68 12.89 227.75 12.77 227.75 12.54C227.75 12.39 227.92 6.65 227.93 4.48C227.93 4.06 227.96 3.70 227.99 3.70L228.62 3.70C228.84 3.70 228.90 3.68 228.90 3.49C228.90 3.25 228.90 3.19 228.70 3.19C228.51 3.19 228.07 3.23 227.51 3.23C226.90 3.23 226.10 3.19 226.00 3.19C225.83 3.19 225.83 3.26 225.83 3.47C225.83 3.64 225.83 3.70 226.00 3.70L227.30 3.70C227.32 3.70 227.32 4.33 227.32 4.44C227.32 5.85 227.35 8.33 227.35 9.70L227.35 10.29C227.35 10.57 227.33 10.65 227.11 10.37L221.42 3.39C221.31 3.25 221.28 3.19 221.12 3.19C221.03 3.19 220.65 3.23 220.35 3.23C220.05 3.23 218.97 3.19 218.78 3.19C218.61 3.19 218.58 3.26 218.58 3.47C218.58 3.64 218.61 3.70 218.78 3.70L219.69 3.70C219.69 4.17 219.65 8.53 219.58 10.79C219.55 11.69 219.56 12.18 219.45 12.18L218.81 12.18C218.58 12.18 218.54 12.19 218.54 12.39ZM236.52 3.44C236.52 3.68 236.60 3.70 236.77 3.70L237.17 3.70C237.30 3.70 239.55 7.74 239.96 8.50C240.02 8.60 240.06 8.65 240.06 8.81C240.06 10.50 240.04 12.18 239.92 12.18L239.20 12.18C238.98 12.18 238.94 12.19 238.94 12.39C238.94 12.63 238.95 12.68 239.15 12.68C239.34 12.68 240.16 12.64 240.74 12.64C241.57 12.64 242.10 12.68 242.42 12.68C242.59 12.68 242.62 12.61 242.62 12.40C242.62 12.24 242.59 12.18 242.42 12.18L241.46 12.18C241.36 12.18 241.33 9.72 241.33 8.22C241.33 8.18 241.33 8.15 241.37 8.09C241.92 7.22 243.87 3.70 243.94 3.70L244.41 3.70C244.58 3.70 244.68 3.68 244.68 3.44C244.68 3.22 244.59 3.19 244.41 3.19C244.19 3.19 243.95 3.23 243.35 3.23C242.76 3.23 242.42 3.19 242.26 3.19C242.06 3.19 242.02 3.25 242.02 3.49C242.02 3.68 242.09 3.70 242.31 3.70L243.04 3.70C243.05 3.70 243.07 3.71 243.07 3.74C243.07 4.05 241.50 6.99 241.12 7.71C241.01 7.92 241.01 7.88 240.90 7.67C240.49 6.89 239.20 4.56 238.91 3.85C238.85 3.71 238.84 3.70 239.02 3.70L239.85 3.70C240.07 3.70 240.10 3.68 240.10 3.49C240.10 3.25 240.06 3.19 239.90 3.19C239.67 3.19 239.05 3.23 238.25 3.23C237.44 3.23 236.95 3.19 236.77 3.19C236.59 3.19 236.52 3.21 236.52 3.44ZM251.87 3.51C251.87 3.75 251.99 3.77 252.15 3.77L252.66 3.77C252.74 3.77 254.88 10.99 254.91 11.07C255.26 12.14 255.37 12.99 255.68 12.99C255.91 12.99 256.00 12.67 256.28 12.26C256.44 12.05 256.54 12.01 256.68 11.66L258.66 6.45C258.73 6.29 258.76 6.20 258.79 6.20C258.82 6.20 258.85 6.29 258.89 6.45C259.49 8.51 260.16 11.03 260.18 11.07C260.53 12.14 260.64 12.99 260.95 12.99C261.17 12.99 261.27 12.67 261.55 12.26C261.70 12.05 261.80 12.01 261.94 11.66L265.03 4.06C265.13 3.81 265.13 3.77 265.50 3.77C265.73 3.77 265.79 3.71 265.79 3.53C265.79 3.32 265.75 3.26 265.55 3.26C265.41 3.26 265.10 3.30 264.60 3.30C263.86 3.30 263.35 3.26 263.16 3.26C262.98 3.26 262.88 3.28 262.88 3.51C262.88 3.75 262.99 3.77 263.16 3.77L264.07 3.77C264.14 3.77 264.15 3.81 264.15 3.95C264.15 4.63 262.56 8.72 261.84 10.63C261.70 10.99 261.63 11.17 261.59 11.17C261.53 11.17 261.48 10.99 261.35 10.60C261.27 10.30 260.34 7.18 259.81 5.22C259.77 5.05 259.56 4.17 259.56 3.85C259.56 3.81 259.56 3.79 259.57 3.77L260.46 3.77C260.64 3.77 260.74 3.75 260.74 3.56C260.74 3.32 260.69 3.26 260.50 3.26C260.18 3.26 259.24 3.30 258.82 3.30C258.40 3.30 257.49 3.26 257.26 3.26C257.08 3.26 256.98 3.28 256.98 3.51C256.98 3.75 257.10 3.77 257.26 3.77L258.06 3.77C258.10 3.77 258.29 4.27 258.44 4.83C258.50 5.05 258.54 5.15 258.54 5.25C258.54 5.31 258.54 5.38 258.50 5.49L256.49 10.60C256.40 10.82 256.37 10.95 256.33 10.95C256.28 10.95 256.26 10.84 256.17 10.60C256.09 10.32 255.08 7.27 254.48 5.22C254.44 5.08 254.11 3.96 254.10 3.85C254.11 3.77 254.16 3.77 254.20 3.77L254.90 3.77C255.12 3.77 255.19 3.75 255.19 3.56C255.19 3.32 255.15 3.26 254.95 3.26C254.63 3.26 253.92 3.30 253.50 3.30C253.08 3.30 252.38 3.26 252.15 3.26C251.97 3.26 251.87 3.28 251.87 3.51ZM273.41 12.39C273.41 12.63 273.41 12.68 273.60 12.68C273.92 12.68 274.86 12.64 275.28 12.64C275.70 12.64 276.53 12.68 276.85 12.68C277.02 12.68 277.02 12.61 277.02 12.40C277.02 12.24 277.02 12.18 276.85 12.18L275.93 12.18C275.84 12.18 275.80 9.93 275.80 8.20C275.80 8.01 275.80 8.01 275.93 8.01L281.16 8.01C281.23 8.01 281.25 8.01 281.25 8.18L281.25 9.91C281.25 11.05 281.23 12.18 281.18 12.18L280.41 12.18C280.18 12.18 280.14 12.19 280.14 12.39C280.14 12.63 280.15 12.68 280.35 12.68C280.67 12.68 281.51 12.64 281.93 12.64C282.35 12.64 282.94 12.68 283.26 12.68C283.43 12.68 283.44 12.61 283.44 12.40C283.44 12.24 283.43 12.18 283.26 12.18L282.52 12.18C282.48 12.18 282.46 9.27 282.46 7.04C282.46 5.40 282.46 3.70 282.51 3.70L283.12 3.70C283.35 3.70 283.39 3.68 283.39 3.49C283.39 3.25 283.37 3.19 283.18 3.19C283.04 3.19 282.41 3.23 281.82 3.23C281.15 3.23 280.55 3.19 280.32 3.19C280.13 3.19 280.10 3.22 280.10 3.44C280.10 3.67 280.17 3.70 280.34 3.70L281.13 3.70C281.19 3.70 281.25 4.79 281.25 5.71L281.25 7.42C281.25 7.59 281.25 7.59 281.08 7.59L275.97 7.59C275.80 7.59 275.80 7.59 275.80 7.38C275.80 6.96 275.79 6.23 275.79 5.53C275.79 4.66 275.80 3.70 275.86 3.70L276.63 3.70C276.85 3.70 276.89 3.68 276.89 3.49C276.89 3.25 276.88 3.19 276.68 3.19C276.36 3.19 275.77 3.23 275.17 3.23C274.58 3.23 274.09 3.19 273.87 3.19C273.69 3.19 273.59 3.21 273.59 3.44C273.59 3.68 273.70 3.70 273.87 3.70L274.48 3.70C274.54 3.70 274.55 5.59 274.55 7.18L274.55 8.61C274.55 10.08 274.54 12.18 274.47 12.18L273.66 12.18C273.43 12.18 273.41 12.19 273.41 12.39ZM291.48 12.39C291.48 12.63 291.51 12.68 291.70 12.68C292.03 12.68 292.99 12.64 293.41 12.64C293.83 12.64 298.34 12.68 298.66 12.68C298.79 12.68 298.94 12.66 298.94 12.49C298.94 12.07 298.98 11.23 298.98 10.53C298.98 10.39 298.83 10.39 298.70 10.39C298.59 10.39 298.47 10.39 298.47 10.51C298.45 11.06 298.45 11.41 298.42 11.76C298.40 12.01 298.40 12.04 298.30 12.04C298.14 12.04 295.51 12.08 294.01 12.08C293.94 12.08 293.90 10.11 293.86 8.26C293.86 8.06 293.90 8.09 294.04 8.09L296.32 8.09C297.02 8.09 297.05 8.20 297.05 8.30L297.05 9.00C297.05 9.14 297.23 9.14 297.35 9.14C297.44 9.14 297.57 9.13 297.57 9.02C297.57 8.83 297.54 8.33 297.54 7.83C297.54 7.32 297.57 6.83 297.57 6.71C297.57 6.59 297.43 6.58 297.33 6.58C297.22 6.58 297.05 6.59 297.05 6.72L297.05 7.45C297.05 7.62 296.60 7.63 296.32 7.63L293.99 7.63C293.87 7.63 293.86 7.63 293.86 7.45C293.85 6.75 293.83 6.06 293.83 5.46C293.83 5.12 293.83 3.71 293.92 3.71C295.15 3.71 297.65 3.75 297.65 3.81C297.65 3.99 297.61 4.83 297.61 4.89C297.61 5.04 297.68 5.10 297.86 5.10C298.06 5.10 298.13 5.08 298.13 4.94C298.13 3.85 298.19 3.36 298.19 3.09C298.19 2.91 298.10 2.90 297.91 2.90C297.71 2.90 297.71 2.95 297.68 3.11C297.67 3.25 297.74 3.25 296.83 3.25C296.21 3.25 294.07 3.29 293.30 3.29C292.81 3.29 291.87 3.25 291.77 3.25C291.65 3.25 291.59 3.30 291.59 3.49C291.59 3.72 291.66 3.74 291.83 3.74L292.49 3.74C292.54 3.74 292.61 4.79 292.61 5.71C292.61 5.80 292.67 8.27 292.67 9.83L292.67 11.17C292.67 11.84 292.64 12.18 292.61 12.18L291.76 12.18C291.54 12.18 291.48 12.21 291.48 12.39ZM306.95 3.51C306.95 3.72 307.02 3.79 307.22 3.79L308.03 3.77C308.13 3.77 308.17 6.61 308.17 8.55L308.17 10.42C308.17 11.30 308.15 12.18 308.11 12.18L307.51 12.18C307.29 12.18 307.22 12.19 307.22 12.39C307.22 12.63 307.26 12.68 307.45 12.68C307.58 12.68 308.41 12.64 308.83 12.64C309.25 12.64 310.02 12.68 310.34 12.68C310.51 12.68 310.53 12.61 310.53 12.40C310.53 12.24 310.51 12.18 310.34 12.18L309.53 12.18C309.46 12.18 309.37 9.18 309.37 8.37C309.37 8.30 309.37 8.26 309.48 8.26C309.88 8.26 310.48 8.27 310.77 8.27C313.01 8.32 313.15 10.00 313.15 11.68L313.15 12.49C313.15 12.61 313.21 12.64 313.31 12.64C313.31 12.64 314.75 12.68 315.22 12.68C315.39 12.68 315.45 12.64 315.45 12.53C315.45 12.24 315.39 12.18 315.24 12.18L314.59 12.18C314.50 12.18 314.47 12.14 314.44 11.31C314.36 8.99 312.98 8.34 312.07 8.05C311.93 8.01 311.96 8.01 312.07 7.95C312.66 7.69 313.98 6.94 313.98 5.63C313.98 3.63 312.28 3.21 310.88 3.21C310.56 3.21 309.27 3.29 308.85 3.29C308.43 3.29 307.45 3.26 307.23 3.26C307.05 3.26 306.95 3.28 306.95 3.51ZM309.37 7.80L309.37 4.40C309.37 4.05 309.40 3.68 309.44 3.68C309.65 3.65 309.93 3.65 310.16 3.65C311.46 3.65 312.70 4.47 312.70 5.82C312.70 6.99 312.16 7.57 311.50 7.88C311.46 7.90 311.42 7.90 311.35 7.90C310.87 7.88 310.16 7.88 309.55 7.87C309.39 7.87 309.37 7.85 309.37 7.80ZM322.92 12.39C322.92 12.63 322.95 12.68 323.15 12.68C323.47 12.68 324.44 12.64 324.86 12.64C325.28 12.64 329.78 12.68 330.11 12.68C330.23 12.68 330.39 12.66 330.39 12.49C330.39 12.07 330.43 11.23 330.43 10.53C330.43 10.39 330.27 10.39 330.15 10.39C330.04 10.39 329.91 10.39 329.91 10.51C329.90 11.06 329.90 11.41 329.87 11.76C329.84 12.01 329.84 12.04 329.74 12.04C329.59 12.04 326.96 12.08 325.46 12.08C325.39 12.08 325.35 10.11 325.30 8.26C325.30 8.06 325.35 8.09 325.49 8.09L327.77 8.09C328.47 8.09 328.50 8.20 328.50 8.30L328.50 9.00C328.50 9.14 328.68 9.14 328.79 9.14C328.89 9.14 329.01 9.13 329.01 9.02C329.01 8.83 328.99 8.33 328.99 7.83C328.99 7.32 329.01 6.83 329.01 6.71C329.01 6.59 328.87 6.58 328.78 6.58C328.66 6.58 328.50 6.59 328.50 6.72L328.50 7.45C328.50 7.62 328.05 7.63 327.77 7.63L325.43 7.63C325.32 7.63 325.30 7.63 325.30 7.45C325.29 6.75 325.28 6.06 325.28 5.46C325.28 5.12 325.28 3.71 325.36 3.71C326.59 3.71 329.10 3.75 329.10 3.81C329.10 3.99 329.06 4.83 329.06 4.89C329.06 5.04 329.13 5.10 329.31 5.10C329.50 5.10 329.57 5.08 329.57 4.94C329.57 3.85 329.63 3.36 329.63 3.09C329.63 2.91 329.55 2.90 329.35 2.90C329.15 2.90 329.15 2.95 329.13 3.11C329.11 3.25 329.18 3.25 328.27 3.25C327.66 3.25 325.51 3.29 324.74 3.29C324.25 3.29 323.32 3.25 323.22 3.25C323.09 3.25 323.04 3.30 323.04 3.49C323.04 3.72 323.11 3.74 323.27 3.74L323.93 3.74C323.99 3.74 324.06 4.79 324.06 5.71C324.06 5.80 324.11 8.27 324.11 9.83L324.11 11.17C324.11 11.84 324.09 12.18 324.06 12.18L323.20 12.18C322.98 12.18 322.92 12.21 322.92 12.39ZM338.95 12.07C338.95 12.31 339.42 12.75 339.82 12.75C340.00 12.75 340.45 12.35 340.45 11.90C340.45 11.51 339.88 11.20 339.61 11.20C339.35 11.20 338.95 11.76 338.95 12.07ZM339.19 3.53C339.19 4.28 339.37 6.93 339.46 10.05C339.46 10.19 339.58 10.23 339.68 10.23C339.78 10.23 339.92 10.19 339.92 10.05C340.09 6.36 340.28 3.64 340.28 3.47C340.28 3.19 340.13 3.14 339.81 3.14C339.44 3.14 339.19 3.21 339.19 3.53Z"></path></g></svg>